<svg id="visual" viewBox="0 0 600 900" width="600" height="900" xmlns="http://www.w3.org/2000/svg" xmlns:xlink="http://www.w3.org/1999/xlink" version="1.1"><path d="M0 64L10 67C20 70 40 76 60 74.5C80 73 100 64 120 70C140 76 160 97 180 103C200 109 220 100 240 101.5C260 103 280 115 300 119.5C320 124 340 121 360 121C380 121 400 124 420 119.5C440 115 460 103 480 89.5C500 76 520 61 540 58C560 55 580 64 590 68.5L600 73L600 0L590 0C580 0 560 0 540 0C520 0 500 0 480 0C460 0 440 0 420 0C400 0 380 0 360 0C340 0 320 0 300 0C280 0 260 0 240 0C220 0 200 0 180 0C160 0 140 0 120 0C100 0 80 0 60 0C40 0 20 0 10 0L0 0Z" fill="#f3bee9"></path><path d="M0 235L10 253C20 271 40 307 60 304C80 301 100 259 120 272.5C140 286 160 355 180 389.5C200 424 220 424 240 421C260 418 280 412 300 406C320 400 340 394 360 394C380 394 400 400 420 373C440 346 460 286 480 253C500 220 520 214 540 226C560 238 580 268 590 283L600 298L600 71L590 66.5C580 62 560 53 540 56C520 59 500 74 480 87.5C460 101 440 113 420 117.5C400 122 380 119 360 119C340 119 320 122 300 117.5C280 113 260 101 240 99.5C220 98 200 107 180 101C160 95 140 74 120 68C100 62 80 71 60 72.5C40 74 20 68 10 65L0 62Z" fill="#f0b2e5"></path><path d="M0 343L10 352C20 361 40 379 60 373C80 367 100 337 120 364C140 391 160 475 180 511C200 547 220 535 240 524.5C260 514 280 505 300 496C320 487 340 478 360 481C380 484 400 499 420 479.5C440 460 460 406 480 362.5C500 319 520 286 540 296.5C560 307 580 361 590 388L600 415L600 296L590 281C580 266 560 236 540 224C520 212 500 218 480 251C460 284 440 344 420 371C400 398 380 392 360 392C340 392 320 398 300 404C280 410 260 416 240 419C220 422 200 422 180 387.5C160 353 140 284 120 270.5C100 257 80 299 60 302C40 305 20 269 10 251L0 233Z" fill="#eda5e1"></path><path d="M0 703L10 680.5C20 658 40 613 60 602.5C80 592 100 616 120 647.5C140 679 160 718 180 725.5C200 733 220 709 240 689.5C260 670 280 655 300 658C320 661 340 682 360 701.5C380 721 400 739 420 733C440 727 460 697 480 683.5C500 670 520 673 540 665.5C560 658 580 640 590 631L600 622L600 413L590 386C580 359 560 305 540 294.5C520 284 500 317 480 360.5C460 404 440 458 420 477.5C400 497 380 482 360 479C340 476 320 485 300 494C280 503 260 512 240 522.5C220 533 200 545 180 509C160 473 140 389 120 362C100 335 80 365 60 371C40 377 20 359 10 350L0 341Z" fill="#e697da"></path><path d="M0 793L10 784C20 775 40 757 60 745C80 733 100 727 120 743.5C140 760 160 799 180 809.5C200 820 220 802 240 785.5C260 769 280 754 300 754C320 754 340 769 360 784C380 799 400 814 420 815.5C440 817 460 805 480 796C500 787 520 781 540 767.5C560 754 580 733 590 722.5L600 712L600 620L590 629C580 638 560 656 540 663.5C520 671 500 668 480 681.5C460 695 440 725 420 731C400 737 380 719 360 699.5C340 680 320 659 300 656C280 653 260 668 240 687.5C220 707 200 731 180 723.5C160 716 140 677 120 645.5C100 614 80 590 60 600.5C40 611 20 656 10 678.5L0 701Z" fill="#dd88cf"></path><path d="M0 901L10 901C20 901 40 901 60 901C80 901 100 901 120 901C140 901 160 901 180 901C200 901 220 901 240 901C260 901 280 901 300 901C320 901 340 901 360 901C380 901 400 901 420 901C440 901 460 901 480 901C500 901 520 901 540 901C560 901 580 901 590 901L600 901L600 710L590 720.5C580 731 560 752 540 765.5C520 779 500 785 480 794C460 803 440 815 420 813.5C400 812 380 797 360 782C340 767 320 752 300 752C280 752 260 767 240 783.5C220 800 200 818 180 807.5C160 797 140 758 120 741.5C100 725 80 731 60 743C40 755 20 773 10 782L0 791Z" fill="#d379c4"></path></svg>